<svg
    width="640"
    height="480"
    viewBox="0 0 640 480"
    xmlns="http://www.w3.org/2000/svg"
    preserveAspectRatio="none"
>
  <style>
    :root {
      opacity: 0.5;
    }

    path {
      fill: #AD00FF;
      stroke: none;
      stroke-width: 0;
      vector-effect: non-scaling-stroke;
    }

    path.z0 {
      fill: #d67fff
    }

    path.z1 {
      fill: #cb5eff
    }

    path.z2 {
      fill: #c03dff
    }

    path.z3 {
      fill: #b61cff
    }
  </style>
  <path
        d="m 0,-30 l 40,0 l 0,90 l 40,0 l 0,-90 l 40,0 l 0,60 l 40,0 l 0,-90 l 40,0 l 0,60 l 40,0 l 0,68.5714 l 40,0 l 0,-90 l 40,0 l 0,90 l 40,0 l 0,-30 l 40,0 l 0,30 l 40,0 l 0,-90 l 40,0 l 0,60 l 40,0 l 0,-90 l 40,0 l 0,30 l 40,0 l 0,90 l 40,0 l 0,-98.5714 l 40,0 l 0,90 l 40,0 l 0,-90 l 40,0 l 0,60 l 40,0 l 0,-90 l 40,0 l 0,60 l 40,0 l 0,68.5714 l 40,0 l 0,-90 l 40,0 l 0,90 l 40,0 l 0,-30 l 40,0 l 0,30 l 40,0 l 0,-90 l 40,0 l 0,60 l 40,0 l 0,-90 l 40,0 l 0,30 l 40,0 l 0,90 l 40,0 l 0,-98.5714 l 40,0 l 0,90 l 40,0 l 0,-90 l 40,0 l 0,60 l 40,0 l 0,-90 l 40,0 l 0,60 l 40,0 l 0,68.5714 l 40,0 l 0,-90 l 40,0 l 0,90 l 40,0 l 0,-30 l 40,0 l 0,30 l 40,0 l 0,-90 l 40,0 l 0,60 l 40,0 l 0,-90 l 40,0 l 0,30 l 40,0 l 0,90 l 40,0 l 0,-98.5714 l 40,0 l 0,90 l 40,0 l 0,-90 l 40,0 l 0,60 l 40,0 l 0,-90 l 40,0 l 0,60 l 40,0 l 0,68.5714 l 40,0 l 0,-90 l 40,0 l 0,90 l 40,0 l 0,-30 l 40,0 l 0,30 l 40,0 l 0,-90 l 40,0 l 0,60 l 40,0 l 0,-90 l 40,0 l 0,30 l 40,0 l 0,90 l 40,0 l 0,-98.5714 l 40,0 l 0,90 l 40,0 l 0,-90 l 40,0 l 0,60 l 40,0 l 0,-90 l 40,0 l 0,60 l 40,0 l 0,68.5714 l 40,0 l 0,-90 l 40,0 l 0,90 l 40,0 l 0,-30 l 40,0 l 0,30 l 40,0 l 0,-90 l 40,0 l 0,60 l 40,0 l 0,-90 l 40,0 l 0,30 l 40,0 l 0,90 l 40,0 l 0,411.4286 l -3200,0"
        transform="translate(0,344.7033)"
        class="z4"
    >
  </path>
</svg>
